<svg viewBox="0 0 20 20" xmlns="http://www.w3.org/2000/svg" xmlns:xlink="http://www.w3.org/1999/xlink" width="20.000000" height="20.000000" fill="none" customFrame="#000000">
	<rect id="Component 6/Group" width="20.000000" height="20.000000" x="0.000000" y="0.000000" />
	<path id="Vector" d="M0 0L20 0L20 20L0 20L0 0Z" fill-rule="nonzero" />
	<path id="Vector" d="M3.33317 13.3334L3.33317 3.33341L1.6665 3.33341L1.6665 1.66675L4.1665 1.66675C4.38752 1.66675 4.59948 1.75455 4.75576 1.91083C4.91204 2.06711 4.99984 2.27907 4.99984 2.50008L4.99984 12.5001L15.3648 12.5001L17.0315 5.83341L6.6665 5.83341L6.6665 4.16675L18.0998 4.16675C18.2265 4.16675 18.3515 4.19563 18.4653 4.25119C18.5792 4.30676 18.6789 4.38754 18.7568 4.4874C18.8347 4.58727 18.8889 4.70358 18.9151 4.82751C18.9413 4.95143 18.939 5.07971 18.9082 5.20258L16.8248 13.5359C16.7797 13.7161 16.6756 13.8761 16.5292 13.9904C16.3827 14.1047 16.2023 14.1667 16.0165 14.1667L4.1665 14.1667C3.94549 14.1667 3.73353 14.079 3.57725 13.9227C3.42097 13.7664 3.33317 13.5544 3.33317 13.3334ZM4.99984 19.1667C4.55781 19.1667 4.13389 18.9912 3.82133 18.6786C3.50877 18.366 3.33317 17.9421 3.33317 17.5001C3.33317 17.0581 3.50877 16.6341 3.82133 16.3216C4.13389 16.009 4.55781 15.8334 4.99984 15.8334C5.44186 15.8334 5.86579 16.009 6.17835 16.3216C6.49091 16.6341 6.6665 17.0581 6.6665 17.5001C6.6665 17.9421 6.49091 18.366 6.17835 18.6786C5.86579 18.9912 5.44186 19.1667 4.99984 19.1667ZM14.9998 19.1667C14.5578 19.1667 14.1339 18.9912 13.8213 18.6786C13.5088 18.366 13.3332 17.9421 13.3332 17.5001C13.3332 17.0581 13.5088 16.6341 13.8213 16.3216C14.1339 16.009 14.5578 15.8334 14.9998 15.8334C15.4419 15.8334 15.8658 16.009 16.1783 16.3216C16.4909 16.6341 16.6665 17.0581 16.6665 17.5001C16.6665 17.9421 16.4909 18.366 16.1783 18.6786C15.8658 18.9912 15.4419 19.1667 14.9998 19.1667Z" fill="rgb(255,255,255)" fill-rule="nonzero" />
</svg>
